# xmcd
# 
# Track frame offsets:
#     150
#     13267
#     25630
#     38715
#     54182
#     67082
#     78210
#     93672
#     108830
#     124215
#     141270
#     157765
# 
# Disc length: 2322
# 
# Revision: 3
# Processed by: cddbd v1.5.2PL0 Copyright (c) Steve Scherf et al.
# Submitted via: fre:ac v1.0.31
# 
DISCID=9109100c
DTITLE=Ray Charles - The Genius of
DYEAR=1959
DGENRE=Blues
TTITLE0=Let The Good Times Roll
TTITLE1=It Had To Be You
TTITLE2=Alexander's Ragtime Band
TTITLE3=Two Years Of Torture
TTITLE4=When Your Lover Has Gone
TTITLE5=Deed I Do
TTITLE6=Just For A Thrill
TTITLE7=You Won't Let Me Go
TTITLE8=Tell Me You'll Wait For Me
TTITLE9=Don't Let The Sun Catch You Cryin'
TTITLE10=Am I Blue
TTITLE11=Come Rain Or Come Shine
EXTD=1959 Atlantic Recording 1312-2\n\nRay Charles: piano, vocals (all tracks]\nClark Terry, Ernie Royal, Joe Newman, Snookie Young,\n  Marcus Belgrave, John Hunt: trumpet (tracks 1-6]\nMelba Liston, Quentin Jackson, Thomas Mitchell,\n   Al Gray: trombone
EXTD=(tracks 1-6]\nFrank Wess: flute, alto or tenor sax (tracks 1-6]\nMarshall Royal: alto sax (tracks 1-6]\nPaul Gonsalves, David "Fathead" Newman: tenor sax (tracks 1-6]\nZoot Sims: tenor sax (tracks 1, 3, 6]\nCharlie Fowlkes, Bennie Crawford: baritone
EXTD=sax (tracks 1-6]\nFreddie Green: gutiar (tracks 1-6]\nEddie Jones, Edgar Willis: bass (tracks 1, 3, 6]\nCharlie Persip, Teagle Fleming: drums (tracks 1-6]\nJose Mangual: bongo drums (track 3]\nBilly Mitchell: tenor sax (tracks 2, 4, 5]\nAllen Hanlon
EXTD=: guitar (tracks 7-12]\nWendell Marshall: bass (tracks 7-12]\nTed Sommer: drums (tracks 7-12]\nBob Brookmeyer: trombone (tracks 7-12]\nwoodwinds/strings concertmaster Harry Lookofsky (tracks 7-12]\n\n\nEntry: Mike Lempriere  mikel@speakeasy.org  21-F
EXTD=eb-1997\n YEAR: 1959
EXTT0=
EXTT1=
EXTT2=
EXTT3=
EXTT4=
EXTT5=
EXTT6=
EXTT7=
EXTT8=
EXTT9=
EXTT10=
EXTT11=
PLAYORDER=
